<?xml version="1.0" encoding="UTF-8"?>
<svg xmlns="http://www.w3.org/2000/svg" width="24" height="24" viewBox="0 0 24 24" fill="none" stroke="#e31937" stroke-width="2" stroke-linecap="round" stroke-linejoin="round">
  <circle cx="12" cy="12" r="10"></circle>
  <path d="M12 16v-4"></path>
  <path d="M12 8h.01"></path>
  <path d="M8 4H6a2 2 0 0 0-2 2v12a2 2 0 0 0 2 2h12a2 2 0 0 0 2-2v-2"></path>
  <path d="M16 4.83C16.5 4.3 17.26 4 18 4s1.5.3 2 .83a2.82 2.82 0 0 1 0 4.17C19.5 9.7 18.74 10 18 10s-1.5-.3-2-.83a2.82 2.82 0 0 1 0-4.34z"></path>
  <path d="M21 16.2c-.5.62-1.6 1.8-3 1.8s-2.5-1.18-3-1.8"></path>
</svg>
